CrispyCond Thin-MinGrade-shadow.ufo
<glyph name="one" format="2">
  <advance width="7"/>
  <unicode hex="0031"/>
  <outline>
    <contour>
      <point x="160" y="-1" type="line"/>
      <point x="160" y="4" type="line"/>
      <point x="93" y="4" type="line"/>
      <point x="93" y="1602" type="line"/>
      <point x="18" y="1602" type="line"/>
      <point x="-133" y="1451" type="line"/>
      <point x="-133" y="1446" type="line"/>
      <point x="-63" y="1446" type="line"/>
      <point x="-63" y="-80" type="line"/>
      <point x="-130" y="-147" type="line"/>
      <point x="-130" y="-152" type="line"/>
      <point x="9" y="-152" type="line"/>
    </contour>
    <contour>
      <point x="-59" y="-82" type="line"/>
      <point x="-59" y="1450" type="line"/>
      <point x="-128" y="1450" type="line"/>
      <point x="20" y="1598" type="line"/>
      <point x="89" y="1598" type="line"/>
      <point x="89" y="0" type="line"/>
      <point x="155" y="0" type="line"/>
      <point x="7" y="-148" type="line"/>
      <point x="-125" y="-148" type="line"/>
    </contour>
  </outline>
</glyph>
<glyph name="six" format="2">
  <advance width="8"/>
  <unicode hex="0036"/>
  <outline>
    <contour>
      <point x="5" y="-152" type="line"/>
      <point x="156" y="-1" type="line"/>
      <point x="156" y="803" type="line"/>
      <point x="31" y="803" type="line"/>
      <point x="31" y="1033" type="line"/>
      <point x="156" y="1158" type="line"/>
      <point x="156" y="1602" type="line"/>
      <point x="67" y="1602" type="line"/>
      <point x="-84" y="1451" type="line"/>
      <point x="-125" y="1288" type="line"/>
      <point x="-125" y="-152" type="line"/>
    </contour>
    <contour>
      <point x="27" y="1035" type="line"/>
      <point x="27" y="799" type="line"/>
      <point x="152" y="799" type="line"/>
      <point x="152" y="1" type="line"/>
      <point x="3" y="-148" type="line"/>
      <point x="-121" y="-148" type="line"/>
      <point x="-121" y="1288" type="line"/>
      <point x="-80" y="1449" type="line"/>
      <point x="69" y="1598" type="line"/>
      <point x="152" y="1598" type="line"/>
      <point x="152" y="1160" type="line"/>
    </contour>
  </outline>
</glyph>
<glyph name="seven" format="2">
  <advance width="6"/>
  <unicode hex="0037"/>
  <outline>
    <contour>
      <point x="-56" y="-152" type="line"/>
      <point x="95" y="-1" type="line"/>
      <point x="154" y="1489" type="line"/>
      <point x="154" y="1489" type="line"/>
      <point x="154" y="1489" type="line"/>
      <point x="154" y="1602" type="line"/>
      <point x="24" y="1602" type="line"/>
      <point x="-127" y="1451" type="line"/>
      <point x="-127" y="1007" type="line"/>
      <point x="-122" y="1007" type="line"/>
      <point x="-11" y="1118" type="line"/>
      <point x="-61" y="-152" type="line"/>
    </contour>
    <contour>
      <point x="-7" y="1128" type="line"/>
      <point x="-123" y="1012" type="line"/>
      <point x="-123" y="1449" type="line"/>
      <point x="26" y="1598" type="line"/>
      <point x="150" y="1598" type="line"/>
      <point x="150" y="1489" type="line"/>
      <point x="91" y="1" type="line"/>
      <point x="-57" y="-147" type="line"/>
    </contour>
  </outline>
</glyph>
<glyph name="C" format="2">
  <advance width="9"/>
  <unicode hex="0043"/>
  <outline>
    <contour>
      <point x="5" y="-152" type="line"/>
      <point x="156" y="-1" type="line"/>
      <point x="156" y="328" type="line"/>
      <point x="151" y="328" type="line"/>
      <point x="32" y="209" type="line"/>
      <point x="32" y="968" type="line"/>
      <point x="155" y="1091" type="line"/>
      <point x="155" y="1602" type="line"/>
      <point x="65" y="1602" type="line"/>
      <point x="-86" y="1451" type="line"/>
      <point x="-124" y="1284" type="line"/>
      <point x="-124" y="-152" type="line"/>
    </contour>
    <contour>
      <point x="28" y="970" type="line"/>
      <point x="28" y="199" type="line"/>
      <point x="152" y="323" type="line"/>
      <point x="152" y="1" type="line"/>
      <point x="3" y="-148" type="line"/>
      <point x="-120" y="-148" type="line"/>
      <point x="-120" y="1284" type="line"/>
      <point x="-82" y="1449" type="line"/>
      <point x="67" y="1598" type="line"/>
      <point x="151" y="1598" type="line"/>
      <point x="151" y="1093" type="line"/>
    </contour>
  </outline>
</glyph>
<glyph name="D" format="2">
  <advance width="19"/>
  <unicode hex="0044"/>
  <outline>
    <contour>
      <point x="165" y="166" type="line"/>
      <point x="165" y="1602" type="line"/>
      <point x="31" y="1602" type="line"/>
      <point x="-120" y="1451" type="line"/>
      <point x="-120" y="-152" type="line"/>
      <point x="-24" y="-152" type="line"/>
      <point x="127" y="-1" type="line"/>
    </contour>
    <contour>
      <point x="-116" y="-148" type="line"/>
      <point x="-116" y="1449" type="line"/>
      <point x="33" y="1598" type="line"/>
      <point x="161" y="1598" type="line"/>
      <point x="161" y="166" type="line"/>
      <point x="123" y="1" type="line"/>
      <point x="-26" y="-148" type="line"/>
    </contour>
  </outline>
</glyph>
<glyph name="I" format="2">
  <advance width="3"/>
  <unicode hex="0049"/>
  <outline>
    <contour>
      <point x="152" y="-1" type="line"/>
      <point x="152" y="4" type="line"/>
      <point x="89" y="4" type="line"/>
      <point x="89" y="1534" type="line"/>
      <point x="152" y="1597" type="line"/>
      <point x="152" y="1602" type="line"/>
      <point x="22" y="1602" type="line"/>
      <point x="-129" y="1451" type="line"/>
      <point x="-129" y="1446" type="line"/>
      <point x="-67" y="1446" type="line"/>
      <point x="-67" y="-85" type="line"/>
      <point x="-129" y="-147" type="line"/>
      <point x="-129" y="-152" type="line"/>
      <point x="1" y="-152" type="line"/>
    </contour>
    <contour>
      <point x="85" y="1536" type="line"/>
      <point x="85" y="0" type="line"/>
      <point x="147" y="0" type="line"/>
      <point x="-1" y="-148" type="line"/>
      <point x="-124" y="-148" type="line"/>
      <point x="-63" y="-87" type="line"/>
      <point x="-63" y="1450" type="line"/>
      <point x="-124" y="1450" type="line"/>
      <point x="24" y="1598" type="line"/>
      <point x="147" y="1598" type="line"/>
    </contour>
  </outline>
</glyph>
<glyph name="O" format="2">
  <advance width="13"/>
  <unicode hex="004F"/>
  <outline>
    <contour>
      <point x="159" y="166" type="line"/>
      <point x="159" y="1602" type="line"/>
      <point x="63" y="1602" type="line"/>
      <point x="-88" y="1451" type="line"/>
      <point x="-126" y="1285" type="line"/>
      <point x="-126" y="-152" type="line"/>
      <point x="-30" y="-152" type="line"/>
      <point x="121" y="-1" type="line"/>
    </contour>
    <contour>
      <point x="-122" y="-148" type="line"/>
      <point x="-122" y="1285" type="line"/>
      <point x="-84" y="1449" type="line"/>
      <point x="65" y="1598" type="line"/>
      <point x="155" y="1598" type="line"/>
      <point x="155" y="166" type="line"/>
      <point x="117" y="1" type="line"/>
      <point x="-32" y="-148" type="line"/>
    </contour>
  </outline>
</glyph>
<glyph name="R" format="2">
  <advance width="13"/>
  <unicode hex="0052"/>
  <outline>
    <contour>
      <point x="-12" y="-152" type="line"/>
      <point x="139" y="-1" type="line"/>
      <point x="139" y="704" type="line"/>
      <point x="113" y="764" type="line"/>
      <point x="150" y="800" type="line"/>
      <point x="150" y="1602" type="line"/>
      <point x="25" y="1602" type="line"/>
      <point x="-126" y="1451" type="line"/>
      <point x="-126" y="-152" type="line"/>
      <point x="-121" y="-152" type="line"/>
      <point x="-17" y="-48" type="line"/>
      <point x="-17" y="-152" type="line"/>
    </contour>
    <contour>
      <point x="109" y="764" type="line"/>
      <point x="135" y="704" type="line"/>
      <point x="135" y="1" type="line"/>
      <point x="-13" y="-147" type="line"/>
      <point x="-13" y="-38" type="line"/>
      <point x="-122" y="-147" type="line"/>
      <point x="-122" y="1449" type="line"/>
      <point x="27" y="1598" type="line"/>
      <point x="146" y="1598" type="line"/>
      <point x="146" y="802" type="line"/>
    </contour>
  </outline>
</glyph>
<glyph name="U" format="2">
  <advance width="17"/>
  <unicode hex="0055"/>
  <outline>
    <contour>
      <point x="6" y="-152" type="line"/>
      <point x="157" y="-1" type="line"/>
      <point x="157" y="1602" type="line"/>
      <point x="152" y="1602" type="line"/>
      <point x="31" y="1481" type="line"/>
      <point x="31" y="1602" type="line"/>
      <point x="26" y="1602" type="line"/>
      <point x="-125" y="1451" type="line"/>
      <point x="-125" y="-152" type="line"/>
    </contour>
    <contour>
      <point x="27" y="1471" type="line"/>
      <point x="153" y="1597" type="line"/>
      <point x="153" y="1" type="line"/>
      <point x="4" y="-148" type="line"/>
      <point x="-121" y="-148" type="line"/>
      <point x="-121" y="1449" type="line"/>
      <point x="27" y="1597" type="line"/>
    </contour>
  </outline>
</glyph>
<glyph name="X" format="2">
  <advance width="14"/>
  <unicode hex="0058"/>
  <outline>
    <contour>
      <point x="9" y="-152" type="line"/>
      <point x="160" y="-1" type="line"/>
      <point x="160" y="753" type="line"/>
      <point x="138" y="780" type="line"/>
      <point x="156" y="798" type="line"/>
      <point x="156" y="1602" type="line"/>
      <point x="151" y="1602" type="line"/>
      <point x="36" y="1487" type="line"/>
      <point x="36" y="1602" type="line"/>
      <point x="31" y="1602" type="line"/>
      <point x="-120" y="1451" type="line"/>
      <point x="-120" y="694" type="line"/>
      <point x="-103" y="673" type="line"/>
      <point x="-124" y="652" type="line"/>
      <point x="-124" y="-152" type="line"/>
      <point x="-119" y="-152" type="line"/>
      <point x="4" y="-29" type="line"/>
      <point x="4" y="-152" type="line"/>
    </contour>
    <contour>
      <point x="-97" y="673" type="line"/>
      <point x="-116" y="696" type="line"/>
      <point x="-116" y="1449" type="line"/>
      <point x="32" y="1597" type="line"/>
      <point x="32" y="1477" type="line"/>
      <point x="152" y="1597" type="line"/>
      <point x="152" y="800" type="line"/>
      <point x="132" y="780" type="line"/>
      <point x="156" y="751" type="line"/>
      <point x="156" y="1" type="line"/>
      <point x="8" y="-147" type="line"/>
      <point x="8" y="-19" type="line"/>
      <point x="-120" y="-147" type="line"/>
      <point x="-120" y="650" type="line"/>
    </contour>
  </outline>
</glyph>
<glyph name="Y" format="2">
  <advance width="25"/>
  <unicode hex="0059"/>
  <outline>
    <contour>
      <point x="11" y="-152" type="line"/>
      <point x="162" y="-1" type="line"/>
      <point x="162" y="1602" type="line"/>
      <point x="157" y="1602" type="line"/>
      <point x="37" y="1482" type="line"/>
      <point x="37" y="1602" type="line"/>
      <point x="32" y="1602" type="line"/>
      <point x="-119" y="1451" type="line"/>
      <point x="-119" y="647" type="line"/>
      <point x="6" y="647" type="line"/>
      <point x="6" y="323" type="line"/>
      <point x="-123" y="194" type="line"/>
      <point x="-123" y="-152" type="line"/>
    </contour>
    <contour>
      <point x="10" y="321" type="line"/>
      <point x="10" y="651" type="line"/>
      <point x="-115" y="651" type="line"/>
      <point x="-115" y="1449" type="line"/>
      <point x="33" y="1597" type="line"/>
      <point x="33" y="1472" type="line"/>
      <point x="158" y="1597" type="line"/>
      <point x="158" y="1" type="line"/>
      <point x="9" y="-148" type="line"/>
      <point x="-119" y="-148" type="line"/>
      <point x="-119" y="192" type="line"/>
    </contour>
  </outline>
</glyph>
<glyph name="A.shadow" format="2">
  <advance width="-151"/>
  <outline>
    <contour>
      <point x="159" y="2" type="line"/>
      <point x="159" y="1600" type="line"/>
      <point x="69" y="1600" type="line"/>
      <point x="70" y="1606" type="line"/>
      <point x="-235" y="1301" type="line"/>
      <point x="-273" y="1135" type="line"/>
      <point x="-273" y="-302" type="line"/>
      <point x="-268" y="-302" type="line"/>
      <point x="-145" y="-179" type="line"/>
      <point x="-145" y="-302" type="line"/>
      <point x="-140" y="-302" type="line"/>
      <point x="164" y="2" type="line"/>
    </contour>
    <contour>
      <point x="63" y="1589" type="line"/>
      <point x="70" y="1596" type="line"/>
      <point x="155" y="1596" type="line"/>
      <point x="155" y="802" type="line"/>
      <point x="150" y="797" type="line"/>
      <point x="155" y="797" type="line"/>
      <point x="155" y="-1" type="line"/>
      <point x="-141" y="-297" type="line"/>
      <point x="-141" y="-169" type="line"/>
      <point x="-269" y="-297" type="line"/>
      <point x="-269" y="1135" type="line"/>
      <point x="-231" y="1299" type="line"/>
      <point x="64" y="1594" type="line"/>
    </contour>
  </outline>
</glyph>
<glyph name="B.shadow" format="2">
  <advance width="-152"/>
  <outline>
    <contour>
      <point x="129" y="2" type="line"/>
      <point x="124" y="2" type="line"/>
      <point x="162" y="166" type="line"/>
      <point x="162" y="801" type="line"/>
      <point x="137" y="801" type="line"/>
      <point x="137" y="1600" type="line"/>
      <point x="36" y="1600" type="line"/>
      <point x="36" y="1605" type="line"/>
      <point x="-268" y="1301" type="line"/>
      <point x="-268" y="-302" type="line"/>
      <point x="-175" y="-302" type="line"/>
    </contour>
    <contour>
      <point x="32" y="1591" type="line"/>
      <point x="37" y="1596" type="line"/>
      <point x="133" y="1596" type="line"/>
      <point x="133" y="802" type="line"/>
      <point x="128" y="797" type="line"/>
      <point x="158" y="797" type="line"/>
      <point x="158" y="166" type="line"/>
      <point x="120" y="3" type="line"/>
      <point x="115" y="-2" type="line"/>
      <point x="119" y="-2" type="line"/>
      <point x="-177" y="-298" type="line"/>
      <point x="-264" y="-298" type="line"/>
      <point x="-264" y="1299" type="line"/>
      <point x="32" y="1595" type="line"/>
    </contour>
  </outline>
</glyph>
<glyph name="C.shadow" format="2">
  <advance width="-160"/>
  <outline>
    <contour>
      <point x="154" y="2" type="line"/>
      <point x="154" y="331" type="line"/>
      <point x="30" y="207" type="line"/>
      <point x="30" y="966" type="line"/>
      <point x="158" y="1094" type="line"/>
      <point x="153" y="1094" type="line"/>
      <point x="153" y="1600" type="line"/>
      <point x="68" y="1600" type="line"/>
      <point x="69" y="1606" type="line"/>
      <point x="-236" y="1301" type="line"/>
      <point x="-274" y="1134" type="line"/>
      <point x="-274" y="-302" type="line"/>
      <point x="-145" y="-302" type="line"/>
      <point x="159" y="2" type="line"/>
    </contour>
    <contour>
      <point x="26" y="968" type="line"/>
      <point x="26" y="197" type="line"/>
      <point x="150" y="321" type="line"/>
      <point x="150" y="3" type="line"/>
      <point x="145" y="-2" type="line"/>
      <point x="149" y="-2" type="line"/>
      <point x="-147" y="-298" type="line"/>
      <point x="-270" y="-298" type="line"/>
      <point x="-270" y="1134" type="line"/>
      <point x="-232" y="1299" type="line"/>
      <point x="63" y="1594" type="line"/>
      <point x="62" y="1589" type="line"/>
      <point x="69" y="1596" type="line"/>
      <point x="149" y="1596" type="line"/>
      <point x="149" y="1091" type="line"/>
    </contour>
  </outline>
</glyph>
<glyph name="C.wide" format="2">
  <advance width="8"/>
  <outline>
    <contour>
      <point x="155" y="-1" type="line"/>
      <point x="155" y="4" type="line"/>
      <point x="30" y="4" type="line"/>
      <point x="30" y="1294" type="line"/>
      <point x="64" y="1507" type="line"/>
      <point x="154" y="1597" type="line"/>
      <point x="154" y="1602" type="line"/>
      <point x="73" y="1602" type="line"/>
      <point x="-78" y="1451" type="line"/>
      <point x="-126" y="1145" type="line"/>
      <point x="-126" y="-152" type="line"/>
      <point x="4" y="-152" type="line"/>
    </contour>
    <contour>
      <point x="26" y="1294" type="line"/>
      <point x="26" y="0" type="line"/>
      <point x="150" y="0" type="line"/>
      <point x="2" y="-148" type="line"/>
      <point x="-122" y="-148" type="line"/>
      <point x="-122" y="1145" type="line"/>
      <point x="-74" y="1449" type="line"/>
      <point x="75" y="1598" type="line"/>
      <point x="149" y="1598" type="line"/>
      <point x="60" y="1509" type="line"/>
    </contour>
  </outline>
</glyph>
<glyph name="E.wide.shadow" format="2">
  <advance width="-205"/>
  <outline>
    <contour>
      <point x="-186" y="-302" type="line"/>
      <point x="118" y="2" type="line"/>
      <point x="33" y="2" type="line"/>
      <point x="33" y="725" type="line"/>
      <point x="109" y="801" type="line"/>
      <point x="33" y="801" type="line"/>
      <point x="33" y="1516" type="line"/>
      <point x="117" y="1600" type="line"/>
      <point x="33" y="1600" type="line"/>
      <point x="33" y="1605" type="line"/>
      <point x="-271" y="1301" type="line"/>
      <point x="-271" y="-302" type="line"/>
    </contour>
    <contour>
      <point x="29" y="1591" type="line"/>
      <point x="34" y="1596" type="line"/>
      <point x="107" y="1596" type="line"/>
      <point x="29" y="1518" type="line"/>
      <point x="29" y="792" type="line"/>
      <point x="34" y="797" type="line"/>
      <point x="99" y="797" type="line"/>
      <point x="29" y="727" type="line"/>
      <point x="29" y="-2" type="line"/>
      <point x="108" y="-2" type="line"/>
      <point x="-188" y="-298" type="line"/>
      <point x="-267" y="-298" type="line"/>
      <point x="-267" y="1299" type="line"/>
      <point x="29" y="1595" type="line"/>
    </contour>
  </outline>
</glyph>
<glyph name="F.shadow" format="2">
  <advance width="-164"/>
  <outline>
    <contour>
      <point x="36" y="2" type="line"/>
      <point x="36" y="684" type="line"/>
      <point x="153" y="801" type="line"/>
      <point x="36" y="801" type="line"/>
      <point x="36" y="1040" type="line"/>
      <point x="157" y="1161" type="line"/>
      <point x="152" y="1161" type="line"/>
      <point x="152" y="1600" type="line"/>
      <point x="36" y="1600" type="line"/>
      <point x="36" y="1605" type="line"/>
      <point x="-268" y="1301" type="line"/>
      <point x="-268" y="-302" type="line"/>
      <point x="-263" y="-302" type="line"/>
      <point x="41" y="2" type="line"/>
    </contour>
    <contour>
      <point x="32" y="1042" type="line"/>
      <point x="32" y="792" type="line"/>
      <point x="37" y="797" type="line"/>
      <point x="143" y="797" type="line"/>
      <point x="32" y="686" type="line"/>
      <point x="32" y="-1" type="line"/>
      <point x="-264" y="-297" type="line"/>
      <point x="-264" y="1299" type="line"/>
      <point x="32" y="1595" type="line"/>
      <point x="32" y="1591" type="line"/>
      <point x="37" y="1596" type="line"/>
      <point x="148" y="1596" type="line"/>
      <point x="148" y="1158" type="line"/>
    </contour>
  </outline>
</glyph>
<glyph name="F.wide.shadow" format="2">
  <advance width="-181"/>
  <outline>
    <contour>
      <point x="34" y="2" type="line"/>
      <point x="34" y="698" type="line"/>
      <point x="137" y="801" type="line"/>
      <point x="34" y="801" type="line"/>
      <point x="34" y="1494" type="line"/>
      <point x="140" y="1600" type="line"/>
      <point x="34" y="1600" type="line"/>
      <point x="34" y="1605" type="line"/>
      <point x="-270" y="1301" type="line"/>
      <point x="-270" y="-302" type="line"/>
      <point x="-265" y="-302" type="line"/>
      <point x="39" y="2" type="line"/>
    </contour>
    <contour>
      <point x="30" y="1591" type="line"/>
      <point x="35" y="1596" type="line"/>
      <point x="130" y="1596" type="line"/>
      <point x="30" y="1496" type="line"/>
      <point x="30" y="792" type="line"/>
      <point x="35" y="797" type="line"/>
      <point x="127" y="797" type="line"/>
      <point x="30" y="700" type="line"/>
      <point x="30" y="-1" type="line"/>
      <point x="-266" y="-297" type="line"/>
      <point x="-266" y="1299" type="line"/>
      <point x="30" y="1595" type="line"/>
    </contour>
  </outline>
</glyph>
<glyph name="G.shadow" format="2">
  <advance width="-158"/>
  <outline>
    <contour>
      <point x="156" y="2" type="line"/>
      <point x="156" y="801" type="line"/>
      <point x="87" y="801" type="line"/>
      <point x="87" y="806" type="line"/>
      <point x="30" y="749" type="line"/>
      <point x="30" y="1028" type="line"/>
      <point x="163" y="1161" type="line"/>
      <point x="158" y="1161" type="line"/>
      <point x="158" y="1600" type="line"/>
      <point x="68" y="1600" type="line"/>
      <point x="69" y="1606" type="line"/>
      <point x="-236" y="1301" type="line"/>
      <point x="-274" y="1134" type="line"/>
      <point x="-274" y="-302" type="line"/>
      <point x="-143" y="-302" type="line"/>
      <point x="161" y="2" type="line"/>
    </contour>
    <contour>
      <point x="62" y="1589" type="line"/>
      <point x="69" y="1596" type="line"/>
      <point x="154" y="1596" type="line"/>
      <point x="154" y="1158" type="line"/>
      <point x="26" y="1030" type="line"/>
      <point x="26" y="739" type="line"/>
      <point x="84" y="797" type="line"/>
      <point x="152" y="797" type="line"/>
      <point x="152" y="3" type="line"/>
      <point x="147" y="-2" type="line"/>
      <point x="151" y="-2" type="line"/>
      <point x="-145" y="-298" type="line"/>
      <point x="-270" y="-298" type="line"/>
      <point x="-270" y="1134" type="line"/>
      <point x="-232" y="1299" type="line"/>
      <point x="63" y="1594" type="line"/>
    </contour>
  </outline>
</glyph>
<glyph name="G.wide" format="2">
  <outline>
    <contour>
      <point x="6" y="-152" type="line"/>
      <point x="157" y="-1" type="line"/>
      <point x="157" y="803" type="line"/>
      <point x="87" y="803" type="line"/>
      <point x="31" y="747" type="line"/>
      <point x="31" y="1294" type="line"/>
      <point x="65" y="1506" type="line"/>
      <point x="156" y="1597" type="line"/>
      <point x="156" y="1602" type="line"/>
      <point x="74" y="1602" type="line"/>
      <point x="-77" y="1451" type="line"/>
      <point x="-125" y="1145" type="line"/>
      <point x="-125" y="-152" type="line"/>
    </contour>
    <contour>
      <point x="61" y="1508" type="line"/>
      <point x="27" y="1294" type="line"/>
      <point x="27" y="737" type="line"/>
      <point x="89" y="799" type="line"/>
      <point x="153" y="799" type="line"/>
      <point x="153" y="1" type="line"/>
      <point x="4" y="-148" type="line"/>
      <point x="-121" y="-148" type="line"/>
      <point x="-121" y="1145" type="line"/>
      <point x="-73" y="1449" type="line"/>
      <point x="76" y="1598" type="line"/>
      <point x="151" y="1598" type="line"/>
    </contour>
  </outline>
</glyph>
<glyph name="I.narrow" format="2">
  <advance width="-85"/>
  <outline>
    <contour>
      <point x="-110" y="1449" type="line"/>
      <point x="-110" y="-150" type="line"/>
      <point x="-105" y="-150" type="line"/>
      <point x="46" y="1" type="line"/>
      <point x="46" y="1600" type="line"/>
      <point x="41" y="1600" type="line"/>
    </contour>
    <contour>
      <point x="-106" y="1447" type="line"/>
      <point x="42" y="1595" type="line"/>
      <point x="42" y="3" type="line"/>
      <point x="-106" y="-145" type="line"/>
    </contour>
  </outline>
</glyph>
<glyph name="I.narrow.shadow" format="2">
  <advance width="-254"/>
  <outline>
    <contour>
      <point x="49" y="4" type="line"/>
      <point x="44" y="4" type="line"/>
      <point x="44" y="1603" type="line"/>
      <point x="-260" y="1299" type="line"/>
      <point x="-260" y="-300" type="line"/>
      <point x="-255" y="-300" type="line"/>
    </contour>
    <contour>
      <point x="-256" y="1297" type="line"/>
      <point x="40" y="1593" type="line"/>
      <point x="40" y="1" type="line"/>
      <point x="-256" y="-295" type="line"/>
    </contour>
  </outline>
</glyph>
<glyph name="K.shadow" format="2">
  <advance width="-152"/>
  <outline>
    <contour>
      <point x="168" y="2" type="line"/>
      <point x="168" y="801" type="line"/>
      <point x="130" y="801" type="line"/>
      <point x="164" y="1605" type="line"/>
      <point x="42" y="1483" type="line"/>
      <point x="42" y="1605" type="line"/>
      <point x="-262" y="1301" type="line"/>
      <point x="-262" y="-302" type="line"/>
      <point x="-257" y="-302" type="line"/>
      <point x="-136" y="-181" type="line"/>
      <point x="-136" y="-302" type="line"/>
      <point x="-131" y="-302" type="line"/>
      <point x="173" y="2" type="line"/>
    </contour>
    <contour>
      <point x="38" y="1473" type="line"/>
      <point x="160" y="1595" type="line"/>
      <point x="126" y="802" type="line"/>
      <point x="121" y="797" type="line"/>
      <point x="164" y="797" type="line"/>
      <point x="164" y="-1" type="line"/>
      <point x="-132" y="-297" type="line"/>
      <point x="-132" y="-171" type="line"/>
      <point x="-258" y="-297" type="line"/>
      <point x="-258" y="1299" type="line"/>
      <point x="38" y="1595" type="line"/>
    </contour>
  </outline>
</glyph>
<glyph name="L.wide.shadow" format="2">
  <advance width="-189"/>
  <outline>
    <contour>
      <point x="-174" y="-302" type="line"/>
      <point x="130" y="2" type="line"/>
      <point x="34" y="2" type="line"/>
      <point x="34" y="1605" type="line"/>
      <point x="-270" y="1301" type="line"/>
      <point x="-270" y="-302" type="line"/>
    </contour>
    <contour>
      <point x="30" y="-2" type="line"/>
      <point x="120" y="-2" type="line"/>
      <point x="-176" y="-298" type="line"/>
      <point x="-266" y="-298" type="line"/>
      <point x="-266" y="1299" type="line"/>
      <point x="30" y="1595" type="line"/>
    </contour>
  </outline>
</glyph>
<glyph name="M.narrow" format="2">
  <advance width="124"/>
  <outline>
    <contour>
      <point x="117" y="-152" type="line"/>
      <point x="268" y="-1" type="line"/>
      <point x="268" y="1602" type="line"/>
      <point x="73" y="1602" type="line"/>
      <point x="-78" y="1451" type="line"/>
      <point x="-116" y="1287" type="line"/>
      <point x="-116" y="-152" type="line"/>
      <point x="-111" y="-152" type="line"/>
      <point x="1" y="-40" type="line"/>
      <point x="1" y="-152" type="line"/>
      <point x="6" y="-152" type="line"/>
      <point x="112" y="-46" type="line"/>
      <point x="112" y="-152" type="line"/>
    </contour>
    <contour>
      <point x="116" y="-36" type="line"/>
      <point x="5" y="-147" type="line"/>
      <point x="5" y="-30" type="line"/>
      <point x="-112" y="-147" type="line"/>
      <point x="-112" y="1287" type="line"/>
      <point x="-74" y="1449" type="line"/>
      <point x="75" y="1598" type="line"/>
      <point x="264" y="1598" type="line"/>
      <point x="264" y="1" type="line"/>
      <point x="116" y="-147" type="line"/>
    </contour>
  </outline>
</glyph>
<glyph name="M.narrow.shadow" format="2">
  <advance width="-46"/>
  <outline>
    <contour>
      <point x="266" y="2" type="line"/>
      <point x="266" y="1600" type="line"/>
      <point x="76" y="1600" type="line"/>
      <point x="77" y="1606" type="line"/>
      <point x="-228" y="1301" type="line"/>
      <point x="-266" y="1137" type="line"/>
      <point x="-266" y="-302" type="line"/>
      <point x="-261" y="-302" type="line"/>
      <point x="-149" y="-190" type="line"/>
      <point x="-149" y="-302" type="line"/>
      <point x="-144" y="-302" type="line"/>
      <point x="-38" y="-196" type="line"/>
      <point x="-38" y="-302" type="line"/>
      <point x="-33" y="-302" type="line"/>
      <point x="271" y="2" type="line"/>
    </contour>
    <contour>
      <point x="151" y="1591" type="line"/>
      <point x="156" y="1596" type="line"/>
      <point x="262" y="1596" type="line"/>
      <point x="262" y="-1" type="line"/>
      <point x="-34" y="-297" type="line"/>
      <point x="-34" y="-186" type="line"/>
      <point x="-145" y="-297" type="line"/>
      <point x="-145" y="-180" type="line"/>
      <point x="-262" y="-297" type="line"/>
      <point x="-262" y="1137" type="line"/>
      <point x="-224" y="1299" type="line"/>
      <point x="71" y="1594" type="line"/>
      <point x="70" y="1589" type="line"/>
      <point x="77" y="1596" type="line"/>
      <point x="151" y="1596" type="line"/>
    </contour>
  </outline>
</glyph>
<glyph name="N.wide" format="2">
  <advance width="51"/>
  <outline>
    <contour>
      <point x="35" y="-152" type="line"/>
      <point x="186" y="-1" type="line"/>
      <point x="186" y="1602" type="line"/>
      <point x="181" y="1602" type="line"/>
      <point x="68" y="1489" type="line"/>
      <point x="60" y="1602" type="line"/>
      <point x="36" y="1602" type="line"/>
      <point x="-115" y="1451" type="line"/>
      <point x="-115" y="-152" type="line"/>
      <point x="-110" y="-152" type="line"/>
      <point x="1" y="-41" type="line"/>
      <point x="8" y="-152" type="line"/>
    </contour>
    <contour>
      <point x="5" y="-31" type="line"/>
      <point x="-111" y="-147" type="line"/>
      <point x="-111" y="1449" type="line"/>
      <point x="38" y="1598" type="line"/>
      <point x="56" y="1598" type="line"/>
      <point x="64" y="1479" type="line"/>
      <point x="182" y="1597" type="line"/>
      <point x="182" y="1" type="line"/>
      <point x="33" y="-148" type="line"/>
      <point x="12" y="-148" type="line"/>
    </contour>
  </outline>
</glyph>
<glyph name="P.shadow" format="2">
  <advance width="-159"/>
  <outline>
    <contour>
      <point x="37" y="2" type="line"/>
      <point x="37" y="627" type="line"/>
      <point x="162" y="752" type="line"/>
      <point x="157" y="752" type="line"/>
      <point x="157" y="1600" type="line"/>
      <point x="37" y="1600" type="line"/>
      <point x="37" y="1605" type="line"/>
      <point x="-267" y="1301" type="line"/>
      <point x="-267" y="-302" type="line"/>
      <point x="-262" y="-302" type="line"/>
      <point x="42" y="2" type="line"/>
    </contour>
    <contour>
      <point x="33" y="1591" type="line"/>
      <point x="38" y="1596" type="line"/>
      <point x="153" y="1596" type="line"/>
      <point x="153" y="753" type="line"/>
      <point x="148" y="748" type="line"/>
      <point x="152" y="748" type="line"/>
      <point x="33" y="629" type="line"/>
      <point x="33" y="-1" type="line"/>
      <point x="-263" y="-297" type="line"/>
      <point x="-263" y="1299" type="line"/>
      <point x="33" y="1595" type="line"/>
    </contour>
  </outline>
</glyph>
<glyph name="P.wide" format="2">
  <advance width="12"/>
  <outline>
    <contour>
      <point x="-113" y="-152" type="line"/>
      <point x="38" y="-1" type="line"/>
      <point x="38" y="629" type="line"/>
      <point x="158" y="749" type="line"/>
      <point x="158" y="1602" type="line"/>
      <point x="33" y="1602" type="line"/>
      <point x="-118" y="1451" type="line"/>
      <point x="-118" y="-152" type="line"/>
    </contour>
    <contour>
      <point x="34" y="631" type="line"/>
      <point x="34" y="1" type="line"/>
      <point x="-114" y="-147" type="line"/>
      <point x="-114" y="1449" type="line"/>
      <point x="35" y="1598" type="line"/>
      <point x="154" y="1598" type="line"/>
      <point x="154" y="751" type="line"/>
    </contour>
  </outline>
</glyph>
<glyph name="P.wide.shadow" format="2">
  <advance width="-158"/>
  <outline>
    <contour>
      <point x="36" y="2" type="line"/>
      <point x="36" y="627" type="line"/>
      <point x="161" y="752" type="line"/>
      <point x="156" y="752" type="line"/>
      <point x="156" y="1600" type="line"/>
      <point x="36" y="1600" type="line"/>
      <point x="36" y="1605" type="line"/>
      <point x="-268" y="1301" type="line"/>
      <point x="-268" y="-302" type="line"/>
      <point x="-263" y="-302" type="line"/>
      <point x="41" y="2" type="line"/>
    </contour>
    <contour>
      <point x="32" y="1591" type="line"/>
      <point x="37" y="1596" type="line"/>
      <point x="152" y="1596" type="line"/>
      <point x="152" y="753" type="line"/>
      <point x="147" y="748" type="line"/>
      <point x="151" y="748" type="line"/>
      <point x="32" y="629" type="line"/>
      <point x="32" y="-1" type="line"/>
      <point x="-264" y="-297" type="line"/>
      <point x="-264" y="1299" type="line"/>
      <point x="32" y="1595" type="line"/>
    </contour>
  </outline>
</glyph>
<glyph name="Q.shadow" format="2">
  <advance width="-151"/>
  <outline>
    <contour>
      <point x="157" y="2" type="line"/>
      <point x="157" y="1600" type="line"/>
      <point x="66" y="1600" type="line"/>
      <point x="67" y="1606" type="line"/>
      <point x="-238" y="1301" type="line"/>
      <point x="-276" y="1134" type="line"/>
      <point x="-276" y="-302" type="line"/>
      <point x="-211" y="-302" type="line"/>
      <point x="-211" y="-452" type="line"/>
      <point x="-206" y="-452" type="line"/>
      <point x="98" y="-148" type="line"/>
      <point x="93" y="-148" type="line"/>
      <point x="93" y="-67" type="line"/>
      <point x="162" y="2" type="line"/>
    </contour>
    <contour>
      <point x="-207" y="-298" type="line"/>
      <point x="-272" y="-298" type="line"/>
      <point x="-272" y="1134" type="line"/>
      <point x="-234" y="1299" type="line"/>
      <point x="61" y="1594" type="line"/>
      <point x="60" y="1589" type="line"/>
      <point x="67" y="1596" type="line"/>
      <point x="153" y="1596" type="line"/>
      <point x="153" y="3" type="line"/>
      <point x="148" y="-2" type="line"/>
      <point x="152" y="-2" type="line"/>
      <point x="89" y="-65" type="line"/>
      <point x="89" y="-151" type="line"/>
      <point x="-207" y="-447" type="line"/>
    </contour>
  </outline>
</glyph>
<glyph name="R.shadow" format="2">
  <advance width="-156"/>
  <outline>
    <contour>
      <point x="-167" y="-302" type="line"/>
      <point x="-162" y="-302" type="line"/>
      <point x="142" y="2" type="line"/>
      <point x="137" y="2" type="line"/>
      <point x="137" y="701" type="line"/>
      <point x="139" y="704" type="line"/>
      <point x="113" y="764" type="line"/>
      <point x="153" y="803" type="line"/>
      <point x="148" y="803" type="line"/>
      <point x="148" y="1600" type="line"/>
      <point x="28" y="1600" type="line"/>
      <point x="28" y="1605" type="line"/>
      <point x="-276" y="1301" type="line"/>
      <point x="-276" y="-302" type="line"/>
      <point x="-271" y="-302" type="line"/>
      <point x="-167" y="-198" type="line"/>
    </contour>
    <contour>
      <point x="133" y="703" type="line"/>
      <point x="133" y="-1" type="line"/>
      <point x="-163" y="-297" type="line"/>
      <point x="-163" y="-188" type="line"/>
      <point x="-272" y="-297" type="line"/>
      <point x="-272" y="1299" type="line"/>
      <point x="24" y="1595" type="line"/>
      <point x="24" y="1591" type="line"/>
      <point x="29" y="1596" type="line"/>
      <point x="144" y="1596" type="line"/>
      <point x="144" y="804" type="line"/>
      <point x="139" y="799" type="line"/>
      <point x="143" y="799" type="line"/>
      <point x="109" y="764" type="line"/>
      <point x="135" y="704" type="line"/>
    </contour>
  </outline>
</glyph>
<glyph name="R.wide" format="2">
  <advance width="29"/>
  <outline>
    <contour>
      <point x="-5" y="-152" type="line"/>
      <point x="146" y="-1" type="line"/>
      <point x="106" y="749" type="line"/>
      <point x="157" y="800" type="line"/>
      <point x="157" y="1602" type="line"/>
      <point x="32" y="1602" type="line"/>
      <point x="-119" y="1451" type="line"/>
      <point x="-119" y="-152" type="line"/>
      <point x="-114" y="-152" type="line"/>
      <point x="-15" y="-53" type="line"/>
      <point x="-10" y="-152" type="line"/>
    </contour>
    <contour>
      <point x="-11" y="-43" type="line"/>
      <point x="-115" y="-147" type="line"/>
      <point x="-115" y="1449" type="line"/>
      <point x="34" y="1598" type="line"/>
      <point x="153" y="1598" type="line"/>
      <point x="153" y="802" type="line"/>
      <point x="102" y="751" type="line"/>
      <point x="142" y="1" type="line"/>
      <point x="-6" y="-147" type="line"/>
    </contour>
  </outline>
</glyph>
<glyph name="S.shadow" format="2">
  <advance width="-163"/>
  <outline>
    <contour>
      <point x="121" y="2" type="line"/>
      <point x="116" y="2" type="line"/>
      <point x="153" y="157" type="line"/>
      <point x="153" y="801" type="line"/>
      <point x="27" y="801" type="line"/>
      <point x="27" y="1035" type="line"/>
      <point x="154" y="1162" type="line"/>
      <point x="149" y="1162" type="line"/>
      <point x="149" y="1600" type="line"/>
      <point x="65" y="1600" type="line"/>
      <point x="66" y="1606" type="line"/>
      <point x="-239" y="1301" type="line"/>
      <point x="-277" y="1135" type="line"/>
      <point x="-277" y="497" type="line"/>
      <point x="-151" y="497" type="line"/>
      <point x="-151" y="169" type="line"/>
      <point x="-275" y="45" type="line"/>
      <point x="-275" y="-302" type="line"/>
      <point x="-183" y="-302" type="line"/>
    </contour>
    <contour>
      <point x="23" y="1037" type="line"/>
      <point x="23" y="797" type="line"/>
      <point x="149" y="797" type="line"/>
      <point x="149" y="157" type="line"/>
      <point x="112" y="3" type="line"/>
      <point x="107" y="-2" type="line"/>
      <point x="111" y="-2" type="line"/>
      <point x="-185" y="-298" type="line"/>
      <point x="-271" y="-298" type="line"/>
      <point x="-271" y="43" type="line"/>
      <point x="-147" y="167" type="line"/>
      <point x="-147" y="501" type="line"/>
      <point x="-273" y="501" type="line"/>
      <point x="-273" y="1135" type="line"/>
      <point x="-235" y="1299" type="line"/>
      <point x="60" y="1594" type="line"/>
      <point x="59" y="1589" type="line"/>
      <point x="66" y="1596" type="line"/>
      <point x="145" y="1596" type="line"/>
      <point x="145" y="1159" type="line"/>
    </contour>
  </outline>
</glyph>
<glyph name="S.wide.shadow" format="2">
  <advance width="-173"/>
  <outline>
    <contour>
      <point x="107" y="2" type="line"/>
      <point x="102" y="2" type="line"/>
      <point x="139" y="157" type="line"/>
      <point x="139" y="801" type="line"/>
      <point x="24" y="801" type="line"/>
      <point x="24" y="1432" type="line"/>
      <point x="26" y="1434" type="line"/>
      <point x="42" y="1502" type="line"/>
      <point x="140" y="1600" type="line"/>
      <point x="62" y="1600" type="line"/>
      <point x="63" y="1606" type="line"/>
      <point x="-242" y="1301" type="line"/>
      <point x="-280" y="1135" type="line"/>
      <point x="-280" y="497" type="line"/>
      <point x="-165" y="497" type="line"/>
      <point x="-165" y="-143" type="line"/>
      <point x="-178" y="-197" type="line"/>
      <point x="-278" y="-297" type="line"/>
      <point x="-278" y="-302" type="line"/>
      <point x="-197" y="-302" type="line"/>
    </contour>
    <contour>
      <point x="-174" y="-199" type="line"/>
      <point x="-161" y="-143" type="line"/>
      <point x="-161" y="501" type="line"/>
      <point x="-276" y="501" type="line"/>
      <point x="-276" y="1135" type="line"/>
      <point x="-238" y="1299" type="line"/>
      <point x="57" y="1594" type="line"/>
      <point x="56" y="1589" type="line"/>
      <point x="63" y="1596" type="line"/>
      <point x="130" y="1596" type="line"/>
      <point x="38" y="1504" type="line"/>
      <point x="22" y="1436" type="line"/>
      <point x="20" y="1434" type="line"/>
      <point x="20" y="797" type="line"/>
      <point x="135" y="797" type="line"/>
      <point x="135" y="157" type="line"/>
      <point x="98" y="3" type="line"/>
      <point x="93" y="-2" type="line"/>
      <point x="97" y="-2" type="line"/>
      <point x="-199" y="-298" type="line"/>
      <point x="-273" y="-298" type="line"/>
    </contour>
  </outline>
</glyph>
<glyph name="T.shadow" format="2">
  <advance width="-160"/>
  <outline>
    <contour>
      <point x="92" y="2" type="line"/>
      <point x="92" y="1527" type="line"/>
      <point x="165" y="1600" type="line"/>
      <point x="23" y="1600" type="line"/>
      <point x="23" y="1605" type="line"/>
      <point x="-281" y="1301" type="line"/>
      <point x="-281" y="1296" type="line"/>
      <point x="-212" y="1296" type="line"/>
      <point x="-212" y="-302" type="line"/>
      <point x="-207" y="-302" type="line"/>
      <point x="97" y="2" type="line"/>
    </contour>
    <contour>
      <point x="-208" y="1300" type="line"/>
      <point x="-276" y="1300" type="line"/>
      <point x="20" y="1596" type="line"/>
      <point x="88" y="1596" type="line"/>
      <point x="88" y="1591" type="line"/>
      <point x="93" y="1596" type="line"/>
      <point x="155" y="1596" type="line"/>
      <point x="88" y="1529" type="line"/>
      <point x="88" y="-1" type="line"/>
      <point x="-208" y="-297" type="line"/>
    </contour>
  </outline>
</glyph>
<glyph name="U.alt" format="2">
  <advance width="18"/>
  <outline>
    <contour>
      <point x="7" y="-152" type="line"/>
      <point x="158" y="-1" type="line"/>
      <point x="158" y="1602" type="line"/>
      <point x="153" y="1602" type="line"/>
      <point x="31" y="1480" type="line"/>
      <point x="31" y="1602" type="line"/>
      <point x="26" y="1602" type="line"/>
      <point x="-125" y="1451" type="line"/>
      <point x="-125" y="-152" type="line"/>
    </contour>
    <contour>
      <point x="27" y="1470" type="line"/>
      <point x="154" y="1597" type="line"/>
      <point x="154" y="1" type="line"/>
      <point x="5" y="-148" type="line"/>
      <point x="-121" y="-148" type="line"/>
      <point x="-121" y="1449" type="line"/>
      <point x="27" y="1597" type="line"/>
    </contour>
  </outline>
</glyph>
<glyph name="X.shadow" format="2">
  <advance width="-156"/>
  <outline>
    <contour>
      <point x="158" y="2" type="line"/>
      <point x="158" y="749" type="line"/>
      <point x="161" y="752" type="line"/>
      <point x="138" y="780" type="line"/>
      <point x="159" y="801" type="line"/>
      <point x="154" y="801" type="line"/>
      <point x="154" y="1605" type="line"/>
      <point x="34" y="1485" type="line"/>
      <point x="34" y="1605" type="line"/>
      <point x="-270" y="1301" type="line"/>
      <point x="-270" y="544" type="line"/>
      <point x="-253" y="523" type="line"/>
      <point x="-274" y="502" type="line"/>
      <point x="-274" y="-302" type="line"/>
      <point x="-269" y="-302" type="line"/>
      <point x="-146" y="-179" type="line"/>
      <point x="-146" y="-302" type="line"/>
      <point x="-141" y="-302" type="line"/>
      <point x="163" y="2" type="line"/>
    </contour>
    <contour>
      <point x="154" y="751" type="line"/>
      <point x="154" y="-1" type="line"/>
      <point x="-142" y="-297" type="line"/>
      <point x="-142" y="-169" type="line"/>
      <point x="-270" y="-297" type="line"/>
      <point x="-270" y="500" type="line"/>
      <point x="-247" y="523" type="line"/>
      <point x="-266" y="546" type="line"/>
      <point x="-266" y="1299" type="line"/>
      <point x="30" y="1595" type="line"/>
      <point x="30" y="1475" type="line"/>
      <point x="150" y="1595" type="line"/>
      <point x="150" y="802" type="line"/>
      <point x="145" y="797" type="line"/>
      <point x="149" y="797" type="line"/>
      <point x="132" y="780" type="line"/>
      <point x="155" y="752" type="line"/>
    </contour>
  </outline>
</glyph>
<glyph name="Y.shadow" format="2">
  <advance width="-144"/>
  <outline>
    <contour>
      <point x="35" y="1605" type="line"/>
      <point x="-269" y="1301" type="line"/>
      <point x="-269" y="497" type="line"/>
      <point x="-144" y="497" type="line"/>
      <point x="-144" y="173" type="line"/>
      <point x="-273" y="44" type="line"/>
      <point x="-273" y="-302" type="line"/>
      <point x="-139" y="-302" type="line"/>
      <point x="165" y="2" type="line"/>
      <point x="160" y="2" type="line"/>
      <point x="160" y="1605" type="line"/>
      <point x="35" y="1480" type="line"/>
    </contour>
    <contour>
      <point x="-140" y="171" type="line"/>
      <point x="-140" y="501" type="line"/>
      <point x="-265" y="501" type="line"/>
      <point x="-265" y="1299" type="line"/>
      <point x="31" y="1595" type="line"/>
      <point x="31" y="1470" type="line"/>
      <point x="156" y="1595" type="line"/>
      <point x="156" y="802" type="line"/>
      <point x="151" y="797" type="line"/>
      <point x="156" y="797" type="line"/>
      <point x="156" y="3" type="line"/>
      <point x="151" y="-2" type="line"/>
      <point x="155" y="-2" type="line"/>
      <point x="-141" y="-298" type="line"/>
      <point x="-269" y="-298" type="line"/>
      <point x="-269" y="42" type="line"/>
    </contour>
  </outline>
</glyph>
<glyph name="Y.wide" format="2">
  <advance width="18"/>
  <outline>
    <contour>
      <point x="7" y="-152" type="line"/>
      <point x="158" y="-1" type="line"/>
      <point x="158" y="1602" type="line"/>
      <point x="153" y="1602" type="line"/>
      <point x="33" y="1482" type="line"/>
      <point x="33" y="1602" type="line"/>
      <point x="28" y="1602" type="line"/>
      <point x="-123" y="1451" type="line"/>
      <point x="-123" y="647" type="line"/>
      <point x="2" y="647" type="line"/>
      <point x="2" y="-18" type="line"/>
      <point x="-127" y="-147" type="line"/>
      <point x="-127" y="-152" type="line"/>
    </contour>
    <contour>
      <point x="6" y="-20" type="line"/>
      <point x="6" y="651" type="line"/>
      <point x="-119" y="651" type="line"/>
      <point x="-119" y="1449" type="line"/>
      <point x="29" y="1597" type="line"/>
      <point x="29" y="1472" type="line"/>
      <point x="154" y="1597" type="line"/>
      <point x="154" y="1" type="line"/>
      <point x="5" y="-148" type="line"/>
      <point x="-122" y="-148" type="line"/>
    </contour>
  </outline>
</glyph>
<glyph name="Y.wide.shadow" format="2">
  <advance width="-152"/>
  <outline>
    <contour>
      <point x="31" y="1605" type="line"/>
      <point x="-273" y="1301" type="line"/>
      <point x="-273" y="497" type="line"/>
      <point x="-148" y="497" type="line"/>
      <point x="-148" y="-168" type="line"/>
      <point x="-277" y="-297" type="line"/>
      <point x="-277" y="-302" type="line"/>
      <point x="-143" y="-302" type="line"/>
      <point x="161" y="2" type="line"/>
      <point x="156" y="2" type="line"/>
      <point x="156" y="1605" type="line"/>
      <point x="31" y="1480" type="line"/>
    </contour>
    <contour>
      <point x="-144" y="-170" type="line"/>
      <point x="-144" y="501" type="line"/>
      <point x="-269" y="501" type="line"/>
      <point x="-269" y="1299" type="line"/>
      <point x="27" y="1595" type="line"/>
      <point x="27" y="1470" type="line"/>
      <point x="152" y="1595" type="line"/>
      <point x="152" y="802" type="line"/>
      <point x="147" y="797" type="line"/>
      <point x="152" y="797" type="line"/>
      <point x="152" y="3" type="line"/>
      <point x="147" y="-2" type="line"/>
      <point x="151" y="-2" type="line"/>
      <point x="-145" y="-298" type="line"/>
      <point x="-272" y="-298" type="line"/>
    </contour>
  </outline>
</glyph>
<glyph name="Z.shadow" format="2">
  <advance width="-163"/>
  <outline>
    <contour>
      <point x="158" y="2" type="line"/>
      <point x="153" y="2" type="line"/>
      <point x="153" y="250" type="line"/>
      <point x="27" y="124" type="line"/>
      <point x="27" y="236" type="line"/>
      <point x="149" y="1577" type="line"/>
      <point x="149" y="1600" type="line"/>
      <point x="30" y="1600" type="line"/>
      <point x="30" y="1605" type="line"/>
      <point x="-274" y="1301" type="line"/>
      <point x="-274" y="1055" type="line"/>
      <point x="-269" y="1055" type="line"/>
      <point x="-165" y="1159" type="line"/>
      <point x="-277" y="-64" type="line"/>
      <point x="-277" y="-302" type="line"/>
      <point x="-146" y="-302" type="line"/>
    </contour>
    <contour>
      <point x="23" y="236" type="line"/>
      <point x="23" y="114" type="line"/>
      <point x="149" y="240" type="line"/>
      <point x="149" y="3" type="line"/>
      <point x="144" y="-2" type="line"/>
      <point x="148" y="-2" type="line"/>
      <point x="-148" y="-298" type="line"/>
      <point x="-273" y="-298" type="line"/>
      <point x="-273" y="-64" type="line"/>
      <point x="-161" y="1169" type="line"/>
      <point x="-270" y="1060" type="line"/>
      <point x="-270" y="1299" type="line"/>
      <point x="26" y="1595" type="line"/>
      <point x="26" y="1591" type="line"/>
      <point x="31" y="1596" type="line"/>
      <point x="145" y="1596" type="line"/>
      <point x="145" y="1577" type="line"/>
    </contour>
  </outline>
</glyph>
<glyph name="Z.wide" format="2">
  <advance width="9"/>
  <outline>
    <contour>
      <point x="155" y="-1" type="line"/>
      <point x="155" y="4" type="line"/>
      <point x="31" y="4" type="line"/>
      <point x="31" y="234" type="line"/>
      <point x="151" y="1478" type="line"/>
      <point x="151" y="1602" type="line"/>
      <point x="29" y="1602" type="line"/>
      <point x="-122" y="1451" type="line"/>
      <point x="-122" y="1446" type="line"/>
      <point x="-5" y="1446" type="line"/>
      <point x="-5" y="1328" type="line"/>
      <point x="-125" y="87" type="line"/>
      <point x="-125" y="-152" type="line"/>
      <point x="4" y="-152" type="line"/>
    </contour>
    <contour>
      <point x="27" y="234" type="line"/>
      <point x="27" y="0" type="line"/>
      <point x="150" y="0" type="line"/>
      <point x="2" y="-148" type="line"/>
      <point x="-121" y="-148" type="line"/>
      <point x="-121" y="87" type="line"/>
      <point x="-1" y="1328" type="line"/>
      <point x="-1" y="1450" type="line"/>
      <point x="-117" y="1450" type="line"/>
      <point x="31" y="1598" type="line"/>
      <point x="147" y="1598" type="line"/>
      <point x="147" y="1478" type="line"/>
    </contour>
  </outline>
</glyph>
<glyph name="Z.wide.shadow" format="2">
  <advance width="-161"/>
  <outline>
    <contour>
      <point x="-146" y="-302" type="line"/>
      <point x="158" y="2" type="line"/>
      <point x="29" y="2" type="line"/>
      <point x="29" y="237" type="line"/>
      <point x="149" y="1478" type="line"/>
      <point x="149" y="1600" type="line"/>
      <point x="32" y="1600" type="line"/>
      <point x="32" y="1605" type="line"/>
      <point x="-272" y="1301" type="line"/>
      <point x="-272" y="1296" type="line"/>
      <point x="-155" y="1296" type="line"/>
      <point x="-155" y="1178" type="line"/>
      <point x="-275" y="-63" type="line"/>
      <point x="-275" y="-302" type="line"/>
    </contour>
    <contour>
      <point x="-151" y="1178" type="line"/>
      <point x="-151" y="1300" type="line"/>
      <point x="-267" y="1300" type="line"/>
      <point x="29" y="1596" type="line"/>
      <point x="145" y="1596" type="line"/>
      <point x="145" y="1478" type="line"/>
      <point x="25" y="237" type="line"/>
      <point x="25" y="-2" type="line"/>
      <point x="148" y="-2" type="line"/>
      <point x="-148" y="-298" type="line"/>
      <point x="-271" y="-298" type="line"/>
      <point x="-271" y="-63" type="line"/>
    </contour>
  </outline>
</glyph>
<glyph name="eight.shadow" format="2">
  <advance width="-144"/>
  <outline>
    <contour>
      <point x="173" y="2" type="line"/>
      <point x="168" y="2" type="line"/>
      <point x="168" y="752" type="line"/>
      <point x="129" y="800" type="line"/>
      <point x="165" y="845" type="line"/>
      <point x="165" y="1600" type="line"/>
      <point x="33" y="1600" type="line"/>
      <point x="33" y="1605" type="line"/>
      <point x="-271" y="1301" type="line"/>
      <point x="-271" y="544" type="line"/>
      <point x="-235" y="500" type="line"/>
      <point x="-235" y="500" type="line"/>
      <point x="-274" y="453" type="line"/>
      <point x="-274" y="-302" type="line"/>
      <point x="-131" y="-302" type="line"/>
    </contour>
    <contour>
      <point x="120" y="797" type="line"/>
      <point x="126" y="797" type="line"/>
      <point x="164" y="750" type="line"/>
      <point x="164" y="3" type="line"/>
      <point x="159" y="-2" type="line"/>
      <point x="163" y="-2" type="line"/>
      <point x="-133" y="-298" type="line"/>
      <point x="-270" y="-298" type="line"/>
      <point x="-270" y="451" type="line"/>
      <point x="-231" y="498" type="line"/>
      <point x="-231" y="502" type="line"/>
      <point x="-267" y="546" type="line"/>
      <point x="-267" y="1299" type="line"/>
      <point x="29" y="1595" type="line"/>
      <point x="29" y="1591" type="line"/>
      <point x="34" y="1596" type="line"/>
      <point x="161" y="1596" type="line"/>
      <point x="161" y="847" type="line"/>
      <point x="126" y="802" type="line"/>
    </contour>
  </outline>
</glyph>
<glyph name="exclam.shadow" format="2">
  <advance width="-267"/>
  <outline>
    <contour>
      <point x="35" y="22" type="line"/>
      <point x="35" y="1605" type="line"/>
      <point x="-269" y="1301" type="line"/>
      <point x="-269" y="-282" type="line"/>
      <point x="-264" y="-282" type="line"/>
      <point x="40" y="22" type="line"/>
    </contour>
    <contour>
      <point x="-265" y="1299" type="line"/>
      <point x="31" y="1595" type="line"/>
      <point x="31" y="19" type="line"/>
      <point x="-265" y="-277" type="line"/>
    </contour>
    <contour>
      <point x="37" y="10" type="line"/>
      <point x="-115" y="-142" type="line"/>
      <point x="-115" y="-145" type="line"/>
      <point x="-263" y="-293" type="line"/>
      <point x="-263" y="-302" type="line"/>
      <point x="-254" y="-302" type="line"/>
      <point x="-106" y="-154" type="line"/>
      <point x="-103" y="-154" type="line"/>
      <point x="49" y="-2" type="line"/>
      <point x="49" y="10" type="line"/>
    </contour>
    <contour>
      <point x="-107" y="-146" type="line"/>
      <point x="-107" y="-146" type="line"/>
      <point x="-107" y="-146" type="line"/>
      <point x="41" y="2" type="line"/>
      <point x="41" y="2" type="line"/>
      <point x="41" y="2" type="line"/>
    </contour>
    <contour>
      <point x="-115" y="-154" type="line"/>
      <point x="-112" y="-154" type="line"/>
      <point x="-256" y="-298" type="line"/>
      <point x="-259" y="-298" type="line"/>
      <point x="-259" y="-295" type="line"/>
      <point x="-115" y="-151" type="line"/>
    </contour>
    <component base="period" xOffset="5"/>
    <component base="period" xOffset="5"/>
    <component base="period" xOffset="5"/>
    <component base="period" xOffset="5"/>
  </outline>
</glyph>
<glyph name="five.wide.shadow" format="2">
  <advance width="-168"/>
  <outline>
    <contour>
      <point x="153" y="2" type="line"/>
      <point x="148" y="2" type="line"/>
      <point x="148" y="801" type="line"/>
      <point x="28" y="801" type="line"/>
      <point x="28" y="1475" type="line"/>
      <point x="153" y="1600" type="line"/>
      <point x="28" y="1600" type="line"/>
      <point x="28" y="1605" type="line"/>
      <point x="-276" y="1301" type="line"/>
      <point x="-276" y="497" type="line"/>
      <point x="-156" y="497" type="line"/>
      <point x="-156" y="-179" type="line"/>
      <point x="-274" y="-297" type="line"/>
      <point x="-274" y="-302" type="line"/>
      <point x="-151" y="-302" type="line"/>
    </contour>
    <contour>
      <point x="-152" y="-181" type="line"/>
      <point x="-152" y="501" type="line"/>
      <point x="-272" y="501" type="line"/>
      <point x="-272" y="1299" type="line"/>
      <point x="24" y="1595" type="line"/>
      <point x="24" y="1591" type="line"/>
      <point x="29" y="1596" type="line"/>
      <point x="143" y="1596" type="line"/>
      <point x="24" y="1477" type="line"/>
      <point x="24" y="797" type="line"/>
      <point x="144" y="797" type="line"/>
      <point x="144" y="3" type="line"/>
      <point x="139" y="-2" type="line"/>
      <point x="143" y="-2" type="line"/>
      <point x="-153" y="-298" type="line"/>
      <point x="-269" y="-298" type="line"/>
    </contour>
  </outline>
</glyph>
<glyph name="four.shadow" format="2">
  <advance width="-149"/>
  <outline>
    <contour>
      <point x="135" y="2" type="line"/>
      <point x="135" y="777" type="line"/>
      <point x="172" y="814" type="line"/>
      <point x="135" y="814" type="line"/>
      <point x="135" y="1605" type="line"/>
      <point x="28" y="1498" type="line"/>
      <point x="28" y="1606" type="line"/>
      <point x="-276" y="1302" type="line"/>
      <point x="-276" y="510" type="line"/>
      <point x="-169" y="510" type="line"/>
      <point x="-169" y="-302" type="line"/>
      <point x="-164" y="-302" type="line"/>
      <point x="140" y="2" type="line"/>
    </contour>
    <contour>
      <point x="-165" y="514" type="line"/>
      <point x="-272" y="514" type="line"/>
      <point x="-272" y="1300" type="line"/>
      <point x="24" y="1596" type="line"/>
      <point x="24" y="1488" type="line"/>
      <point x="131" y="1595" type="line"/>
      <point x="131" y="815" type="line"/>
      <point x="126" y="810" type="line"/>
      <point x="131" y="810" type="line"/>
      <point x="131" y="805" type="line"/>
      <point x="136" y="810" type="line"/>
      <point x="162" y="810" type="line"/>
      <point x="131" y="779" type="line"/>
      <point x="131" y="-1" type="line"/>
      <point x="-165" y="-297" type="line"/>
    </contour>
  </outline>
</glyph>
<glyph name="nine.wide.shadow" format="2">
  <advance width="-185"/>
  <outline>
    <contour>
      <point x="17" y="1605" type="line"/>
      <point x="-287" y="1301" type="line"/>
      <point x="-287" y="497" type="line"/>
      <point x="-163" y="497" type="line"/>
      <point x="-163" y="-173" type="line"/>
      <point x="-287" y="-297" type="line"/>
      <point x="-287" y="-302" type="line"/>
      <point x="-158" y="-302" type="line"/>
      <point x="146" y="2" type="line"/>
      <point x="141" y="2" type="line"/>
      <point x="141" y="1600" type="line"/>
      <point x="17" y="1600" type="line"/>
    </contour>
    <contour>
      <point x="132" y="797" type="line"/>
      <point x="137" y="797" type="line"/>
      <point x="137" y="3" type="line"/>
      <point x="132" y="-2" type="line"/>
      <point x="136" y="-2" type="line"/>
      <point x="-160" y="-298" type="line"/>
      <point x="-282" y="-298" type="line"/>
      <point x="-159" y="-175" type="line"/>
      <point x="-159" y="501" type="line"/>
      <point x="-283" y="501" type="line"/>
      <point x="-283" y="1299" type="line"/>
      <point x="13" y="1595" type="line"/>
      <point x="13" y="1591" type="line"/>
      <point x="18" y="1596" type="line"/>
      <point x="137" y="1596" type="line"/>
      <point x="137" y="802" type="line"/>
    </contour>
  </outline>
</glyph>
<glyph name="one.narrow.shadow" format="2">
  <advance width="-205"/>
  <outline>
    <contour>
      <point x="104" y="2" type="line"/>
      <point x="99" y="2" type="line"/>
      <point x="99" y="1600" type="line"/>
      <point x="29" y="1600" type="line"/>
      <point x="29" y="1605" type="line"/>
      <point x="-275" y="1301" type="line"/>
      <point x="-275" y="1296" type="line"/>
      <point x="-205" y="1296" type="line"/>
      <point x="-205" y="-302" type="line"/>
      <point x="-200" y="-302" type="line"/>
    </contour>
    <contour>
      <point x="-201" y="1300" type="line"/>
      <point x="-270" y="1300" type="line"/>
      <point x="26" y="1596" type="line"/>
      <point x="95" y="1596" type="line"/>
      <point x="95" y="-1" type="line"/>
      <point x="-201" y="-297" type="line"/>
    </contour>
  </outline>
</glyph>
<glyph name="seven.alt.shadow" format="2">
  <advance width="-153"/>
  <outline>
    <contour>
      <point x="-148" y="-302" type="line"/>
      <point x="153" y="-1" type="line"/>
      <point x="153" y="1602" type="line"/>
      <point x="48" y="1602" type="line"/>
      <point x="-253" y="1301" type="line"/>
      <point x="-253" y="727" type="line"/>
      <point x="-248" y="727" type="line"/>
      <point x="-153" y="822" type="line"/>
      <point x="-153" y="-302" type="line"/>
    </contour>
    <contour>
      <point x="-149" y="832" type="line"/>
      <point x="-249" y="732" type="line"/>
      <point x="-249" y="1299" type="line"/>
      <point x="50" y="1598" type="line"/>
      <point x="149" y="1598" type="line"/>
      <point x="149" y="1" type="line"/>
      <point x="-149" y="-297" type="line"/>
    </contour>
  </outline>
</glyph>
<glyph name="six.shadow" format="2">
  <advance width="-162"/>
  <outline>
    <contour>
      <point x="159" y="2" type="line"/>
      <point x="154" y="2" type="line"/>
      <point x="154" y="801" type="line"/>
      <point x="29" y="801" type="line"/>
      <point x="29" y="1031" type="line"/>
      <point x="159" y="1161" type="line"/>
      <point x="154" y="1161" type="line"/>
      <point x="154" y="1600" type="line"/>
      <point x="70" y="1600" type="line"/>
      <point x="71" y="1606" type="line"/>
      <point x="-234" y="1301" type="line"/>
      <point x="-275" y="1138" type="line"/>
      <point x="-275" y="-302" type="line"/>
      <point x="-145" y="-302" type="line"/>
    </contour>
    <contour>
      <point x="64" y="1589" type="line"/>
      <point x="71" y="1596" type="line"/>
      <point x="150" y="1596" type="line"/>
      <point x="150" y="1158" type="line"/>
      <point x="25" y="1033" type="line"/>
      <point x="25" y="792" type="line"/>
      <point x="30" y="797" type="line"/>
      <point x="150" y="797" type="line"/>
      <point x="150" y="3" type="line"/>
      <point x="145" y="-2" type="line"/>
      <point x="149" y="-2" type="line"/>
      <point x="-147" y="-298" type="line"/>
      <point x="-271" y="-298" type="line"/>
      <point x="-271" y="1138" type="line"/>
      <point x="-230" y="1299" type="line"/>
      <point x="65" y="1594" type="line"/>
    </contour>
  </outline>
</glyph>
<glyph name="six.wide.shadow" format="2">
  <advance width="-186"/>
  <outline>
    <contour>
      <point x="145" y="2" type="line"/>
      <point x="140" y="2" type="line"/>
      <point x="140" y="801" type="line"/>
      <point x="15" y="801" type="line"/>
      <point x="15" y="1433" type="line"/>
      <point x="17" y="1435" type="line"/>
      <point x="30" y="1485" type="line"/>
      <point x="145" y="1600" type="line"/>
      <point x="56" y="1600" type="line"/>
      <point x="57" y="1606" type="line"/>
      <point x="-248" y="1301" type="line"/>
      <point x="-289" y="1137" type="line"/>
      <point x="-289" y="-302" type="line"/>
      <point x="-159" y="-302" type="line"/>
    </contour>
    <contour>
      <point x="26" y="1487" type="line"/>
      <point x="13" y="1437" type="line"/>
      <point x="11" y="1435" type="line"/>
      <point x="11" y="792" type="line"/>
      <point x="16" y="797" type="line"/>
      <point x="136" y="797" type="line"/>
      <point x="136" y="3" type="line"/>
      <point x="131" y="-2" type="line"/>
      <point x="135" y="-2" type="line"/>
      <point x="-161" y="-298" type="line"/>
      <point x="-285" y="-298" type="line"/>
      <point x="-285" y="1137" type="line"/>
      <point x="-244" y="1299" type="line"/>
      <point x="51" y="1594" type="line"/>
      <point x="50" y="1589" type="line"/>
      <point x="57" y="1596" type="line"/>
      <point x="135" y="1596" type="line"/>
    </contour>
  </outline>
</glyph>
<glyph name="three.shadow" format="2">
  <advance width="-162"/>
  <outline>
    <contour>
      <point x="-260" y="511" type="line"/>
      <point x="-260" y="506" type="line"/>
      <point x="-152" y="506" type="line"/>
      <point x="-152" y="170" type="line"/>
      <point x="-277" y="45" type="line"/>
      <point x="-277" y="-302" type="line"/>
      <point x="-147" y="-302" type="line"/>
      <point x="157" y="2" type="line"/>
      <point x="152" y="2" type="line"/>
      <point x="152" y="810" type="line"/>
      <point x="136" y="810" type="line"/>
      <point x="136" y="1600" type="line"/>
      <point x="35" y="1600" type="line"/>
      <point x="35" y="1605" type="line"/>
      <point x="-269" y="1301" type="line"/>
      <point x="-269" y="857" type="line"/>
      <point x="-264" y="857" type="line"/>
      <point x="-168" y="953" type="line"/>
      <point x="-168" y="603" type="line"/>
    </contour>
    <contour>
      <point x="127" y="806" type="line"/>
      <point x="148" y="806" type="line"/>
      <point x="148" y="3" type="line"/>
      <point x="143" y="-2" type="line"/>
      <point x="147" y="-2" type="line"/>
      <point x="-149" y="-298" type="line"/>
      <point x="-273" y="-298" type="line"/>
      <point x="-273" y="43" type="line"/>
      <point x="-148" y="168" type="line"/>
      <point x="-148" y="510" type="line"/>
      <point x="-255" y="510" type="line"/>
      <point x="-164" y="601" type="line"/>
      <point x="-164" y="963" type="line"/>
      <point x="-265" y="862" type="line"/>
      <point x="-265" y="1299" type="line"/>
      <point x="31" y="1595" type="line"/>
      <point x="31" y="1591" type="line"/>
      <point x="36" y="1596" type="line"/>
      <point x="132" y="1596" type="line"/>
      <point x="132" y="811" type="line"/>
    </contour>
  </outline>
</glyph>
<glyph name="three.wide" format="2">
  <advance width="16"/>
  <outline>
    <contour>
      <point x="6" y="-152" type="line"/>
      <point x="157" y="-1" type="line"/>
      <point x="157" y="812" type="line"/>
      <point x="138" y="812" type="line"/>
      <point x="138" y="1602" type="line"/>
      <point x="43" y="1602" type="line"/>
      <point x="-108" y="1451" type="line"/>
      <point x="-108" y="1446" type="line"/>
      <point x="-18" y="1446" type="line"/>
      <point x="-18" y="750" type="line"/>
      <point x="-107" y="661" type="line"/>
      <point x="-107" y="656" type="line"/>
      <point x="1" y="656" type="line"/>
      <point x="1" y="-22" type="line"/>
      <point x="-124" y="-147" type="line"/>
      <point x="-124" y="-152" type="line"/>
    </contour>
    <contour>
      <point x="5" y="-24" type="line"/>
      <point x="5" y="660" type="line"/>
      <point x="-102" y="660" type="line"/>
      <point x="-14" y="748" type="line"/>
      <point x="-14" y="1450" type="line"/>
      <point x="-103" y="1450" type="line"/>
      <point x="45" y="1598" type="line"/>
      <point x="134" y="1598" type="line"/>
      <point x="134" y="808" type="line"/>
      <point x="153" y="808" type="line"/>
      <point x="153" y="1" type="line"/>
      <point x="4" y="-148" type="line"/>
      <point x="-119" y="-148" type="line"/>
    </contour>
  </outline>
</glyph>
<glyph name="two.wide" format="2">
  <advance width="18"/>
  <outline>
    <contour>
      <point x="157" y="-1" type="line"/>
      <point x="157" y="4" type="line"/>
      <point x="30" y="4" type="line"/>
      <point x="30" y="678" type="line"/>
      <point x="150" y="798" type="line"/>
      <point x="150" y="1602" type="line"/>
      <point x="28" y="1602" type="line"/>
      <point x="-123" y="1451" type="line"/>
      <point x="-123" y="1446" type="line"/>
      <point x="-6" y="1446" type="line"/>
      <point x="-6" y="772" type="line"/>
      <point x="-126" y="652" type="line"/>
      <point x="-126" y="-152" type="line"/>
      <point x="6" y="-152" type="line"/>
    </contour>
    <contour>
      <point x="26" y="680" type="line"/>
      <point x="26" y="0" type="line"/>
      <point x="152" y="0" type="line"/>
      <point x="4" y="-148" type="line"/>
      <point x="-122" y="-148" type="line"/>
      <point x="-122" y="650" type="line"/>
      <point x="-2" y="770" type="line"/>
      <point x="-2" y="1450" type="line"/>
      <point x="-118" y="1450" type="line"/>
      <point x="30" y="1598" type="line"/>
      <point x="146" y="1598" type="line"/>
      <point x="146" y="800" type="line"/>
    </contour>
  </outline>
</glyph>
